<svg width="209" height="35" viewBox="0 0 209 35" fill="none" xmlns="http://www.w3.org/2000/svg">
<path d="M1.368 34C1.016 34 0.84 33.824 0.84 33.472V3.088C0.84 2.736 1.016 2.56 1.368 2.56H9.768C13.768 2.56 16.744 3.408 18.696 5.104C20.68 6.8 21.672 9.28 21.672 12.544C21.672 15.808 20.664 18.288 18.648 19.984C16.664 21.68 13.704 22.528 9.768 22.528H5.688V33.472C5.688 33.824 5.512 34 5.16 34H1.368ZM5.688 18.448H9.672C12.136 18.448 13.944 17.984 15.096 17.056C16.248 16.128 16.824 14.672 16.824 12.688C16.824 10.576 16.232 9.056 15.048 8.128C13.896 7.168 12.088 6.688 9.624 6.688H5.688V18.448ZM36.3975 34.576C33.1015 34.576 30.5735 33.776 28.8135 32.176C27.0535 30.576 26.1735 28.16 26.1735 24.928V19.552C26.1735 16.32 27.0375 13.904 28.7655 12.304C30.5255 10.704 33.0695 9.904 36.3975 9.904C39.6935 9.904 42.2055 10.704 43.9335 12.304C45.6935 13.904 46.5735 16.32 46.5735 19.552V24.928C46.5735 28.16 45.7095 30.576 43.9815 32.176C42.2535 33.776 39.7255 34.576 36.3975 34.576ZM36.3975 30.4C38.2855 30.4 39.6455 29.92 40.4775 28.96C41.3415 28 41.7735 26.512 41.7735 24.496V19.984C41.7735 18 41.3415 16.528 40.4775 15.568C39.6455 14.576 38.2855 14.08 36.3975 14.08C34.4775 14.08 33.0855 14.576 32.2215 15.568C31.3895 16.528 30.9735 18 30.9735 19.984V24.496C30.9735 26.512 31.3895 28 32.2215 28.96C33.0855 29.92 34.4775 30.4 36.3975 30.4ZM53.2005 34C52.8485 34 52.6725 33.824 52.6725 33.472V1.744C52.6725 1.392 52.8485 1.216 53.2005 1.216H56.9445C57.2965 1.216 57.4725 1.392 57.4725 1.744V13.84C57.4725 14.576 57.4725 15.312 57.4725 16.048C57.4725 16.784 57.4565 17.52 57.4245 18.256C57.4245 18.992 57.4085 19.728 57.3765 20.464H57.4725C58.0165 19.792 58.5765 19.12 59.1525 18.448C59.7285 17.776 60.3205 17.12 60.9285 16.48L66.1125 10.768C66.2405 10.576 66.4325 10.48 66.6885 10.48H71.6325C71.8565 10.48 72.0005 10.544 72.0645 10.672C72.1285 10.8 72.0805 10.944 71.9205 11.104L63.9525 19.552L72.5925 33.376C72.7205 33.536 72.7365 33.68 72.6405 33.808C72.5765 33.936 72.4485 34 72.2565 34H67.7925C67.5365 34 67.3285 33.888 67.1685 33.664L60.5445 23.008L57.4725 26.176V33.472C57.4725 33.824 57.2965 34 56.9445 34H53.2005ZM85.2814 34.576C82.0174 34.576 79.5374 33.84 77.8414 32.368C76.1774 30.896 75.3454 28.704 75.3454 25.792V19.408C75.3454 16.304 76.1774 13.952 77.8414 12.352C79.5054 10.72 81.9694 9.904 85.2334 9.904C88.4654 9.904 90.9134 10.688 92.5774 12.256C94.2414 13.824 95.0734 16.112 95.0734 19.12V22.864C95.0734 23.216 94.9134 23.392 94.5934 23.392H80.1454V24.928C80.1454 26.88 80.5614 28.304 81.3934 29.2C82.2254 30.096 83.5694 30.544 85.4254 30.544C86.8334 30.544 87.9214 30.32 88.6894 29.872C89.4574 29.424 89.8414 28.736 89.8414 27.808C89.8414 27.456 90.0334 27.28 90.4174 27.28H94.1134C94.4014 27.28 94.5774 27.44 94.6414 27.76C94.7694 29.904 94.0014 31.584 92.3374 32.8C90.6734 33.984 88.3214 34.576 85.2814 34.576ZM80.1454 19.744H90.3214V19.504C90.3214 17.584 89.9054 16.176 89.0734 15.28C88.2414 14.384 86.9774 13.936 85.2814 13.936C83.5534 13.936 82.2574 14.4 81.3934 15.328C80.5614 16.256 80.1454 17.648 80.1454 19.504V19.744ZM82.3534 6.832C82.1934 6.832 82.0814 6.784 82.0174 6.688C81.9854 6.56 82.0014 6.432 82.0654 6.304L85.2814 0.351998C85.4094 0.127999 85.6174 0.0159998 85.9054 0.0159998H89.6974C89.8894 0.0159998 90.0014 0.079999 90.0334 0.207997C90.0974 0.303998 90.0654 0.415998 89.9374 0.543999L85.8094 6.496C85.6814 6.72 85.4894 6.832 85.2334 6.832H82.3534Z" fill="black"/>
<path d="M120.727 34.576C119.607 34.576 118.567 34.512 117.607 34.384C116.647 34.256 115.639 34.112 114.583 33.952C113.559 33.76 112.391 33.632 111.079 33.568V1.744C111.079 1.392 111.255 1.216 111.607 1.216H115.351C115.703 1.216 115.879 1.392 115.879 1.744V30.016C116.551 30.112 117.271 30.208 118.039 30.304C118.839 30.4 119.543 30.448 120.151 30.448C122.135 30.448 123.591 29.952 124.519 28.96C125.447 27.936 125.911 26.416 125.911 24.4V19.216C125.911 17.456 125.607 16.176 124.999 15.376C124.391 14.544 123.463 14.128 122.215 14.128C121.191 14.128 120.135 14.432 119.047 15.04C117.991 15.616 116.631 16.64 114.967 18.112L115.159 13.84C116.631 12.464 118.039 11.472 119.383 10.864C120.727 10.224 122.135 9.904 123.607 9.904C125.943 9.904 127.703 10.624 128.887 12.064C130.103 13.504 130.711 15.696 130.711 18.64V24.832C130.711 28.064 129.879 30.496 128.215 32.128C126.583 33.76 124.087 34.576 120.727 34.576ZM146.507 34.576C143.211 34.576 140.683 33.776 138.923 32.176C137.163 30.576 136.283 28.16 136.283 24.928V19.552C136.283 16.32 137.147 13.904 138.875 12.304C140.635 10.704 143.179 9.904 146.507 9.904C149.803 9.904 152.315 10.704 154.043 12.304C155.803 13.904 156.683 16.32 156.683 19.552V24.928C156.683 28.16 155.819 30.576 154.091 32.176C152.363 33.776 149.835 34.576 146.507 34.576ZM146.507 30.4C148.395 30.4 149.755 29.92 150.587 28.96C151.451 28 151.883 26.512 151.883 24.496V19.984C151.883 18 151.451 16.528 150.587 15.568C149.755 14.576 148.395 14.08 146.507 14.08C144.587 14.08 143.195 14.576 142.331 15.568C141.499 16.528 141.083 18 141.083 19.984V24.496C141.083 26.512 141.499 28 142.331 28.96C143.195 29.92 144.587 30.4 146.507 30.4ZM172.382 34.576C169.086 34.576 166.558 33.776 164.798 32.176C163.038 30.576 162.158 28.16 162.158 24.928V19.552C162.158 16.32 163.022 13.904 164.75 12.304C166.51 10.704 169.054 9.904 172.382 9.904C175.678 9.904 178.19 10.704 179.918 12.304C181.678 13.904 182.558 16.32 182.558 19.552V24.928C182.558 28.16 181.694 30.576 179.966 32.176C178.238 33.776 175.71 34.576 172.382 34.576ZM172.382 30.4C174.27 30.4 175.63 29.92 176.462 28.96C177.326 28 177.758 26.512 177.758 24.496V19.984C177.758 18 177.326 16.528 176.462 15.568C175.63 14.576 174.27 14.08 172.382 14.08C170.462 14.08 169.07 14.576 168.206 15.568C167.374 16.528 166.958 18 166.958 19.984V24.496C166.958 26.512 167.374 28 168.206 28.96C169.07 29.92 170.462 30.4 172.382 30.4ZM189.185 34C188.833 34 188.657 33.824 188.657 33.472V1.744C188.657 1.392 188.833 1.216 189.185 1.216H192.929C193.281 1.216 193.457 1.392 193.457 1.744V13.84C193.457 14.576 193.457 15.312 193.457 16.048C193.457 16.784 193.441 17.52 193.409 18.256C193.409 18.992 193.393 19.728 193.361 20.464H193.457C194.001 19.792 194.561 19.12 195.137 18.448C195.713 17.776 196.305 17.12 196.913 16.48L202.097 10.768C202.225 10.576 202.417 10.48 202.673 10.48H207.617C207.841 10.48 207.985 10.544 208.049 10.672C208.113 10.8 208.065 10.944 207.905 11.104L199.937 19.552L208.577 33.376C208.705 33.536 208.721 33.68 208.625 33.808C208.561 33.936 208.433 34 208.241 34H203.777C203.521 34 203.313 33.888 203.153 33.664L196.529 23.008L193.457 26.176V33.472C193.457 33.824 193.281 34 192.929 34H189.185Z" fill="#E85382"/>
</svg>
